{
  "accessors": [
    {
      "bufferView": 2,
      "componentType": 5126,
      "count": 12,
      "max": [
        0.0089699998497962952,
        -0.067450001835823059,
        0.13413999974727631
      ],
      "min": [
        -0.0089699998497962952,
        -0.086450003087520599,
        0.11818999797105789
      ],
      "type": "VEC3"
    },
    {
      "bufferView": 2,
      "byteOffset": 144,
      "componentType": 5126,
      "count": 12,
      "max": [
        0.82324677705764771,
        -0.28143888711929321,
        0.4930080771446228
      ],
      "min": [
        -0.82324677705764771,
        -0.45399999618530273,
        -0.52355998754501343
      ],
      "type": "VEC3"
    },
    {
      "bufferView": 3,
      "componentType": 5126,
      "count": 12,
      "max": [
        0.56526291370391846,
        0.75547176599502563,
        -0.65518122911453247,
        1
      ],
      "min": [
        -0.56526291370391846,
        0.48651537299156189,
        -0.66616863012313843,
        1
      ],
      "type": "VEC4"
    },
    {
      "bufferView": 1,
      "componentType": 5126,
      "count": 12,
      "max": [
        0.87269002199172974,
        0.98795998096466064
      ],
      "min": [
        0.80584001541137695,
        0.88396000862121582
      ],
      "type": "VEC2"
    },
    {
      "bufferView": 0,
      "componentType": 5125,
      "count": 12,
      "max": [
        11
      ],
      "min": [
        0
      ],
      "type": "SCALAR"
    },
    {
      "bufferView": 2,
      "byteOffset": 288,
      "componentType": 5126,
      "count": 144,
      "max": [
        0.029149999842047691,
        0.07701999694108963,
        0.13976000249385834
      ],
      "min": [
        -0.029149999842047691,
        -0.075800001621246338,
        0.00025000001187436283
      ],
      "type": "VEC3"
    },
    {
      "bufferView": 2,
      "byteOffset": 2016,
      "componentType": 5126,
      "count": 144,
      "max": [
        0.97241848707199097,
        0.739399254322052,
        0.84433972835540771
      ],
      "min": [
        -0.97241848707199097,
        -0.74169856309890747,
        -0.99999856948852539
      ],
      "type": "VEC3"
    },
    {
      "bufferView": 3,
      "byteOffset": 192,
      "componentType": 5126,
      "count": 144,
      "max": [
        0.75390881299972534,
        0.98897689580917358,
        0.63764053583145142,
        1
      ],
      "min": [
        -0.92429918050765991,
        -0.78635436296463013,
        -0.63764053583145142,
        1
      ],
      "type": "VEC4"
    },
    {
      "bufferView": 1,
      "byteOffset": 96,
      "componentType": 5126,
      "count": 144,
      "max": [
        0.97402000427246094,
        0.92763000726699829
      ],
      "min": [
        0.44255000352859497,
        0.0032999999821186066
      ],
      "type": "VEC2"
    },
    {
      "bufferView": 0,
      "byteOffset": 48,
      "componentType": 5125,
      "count": 156,
      "max": [
        143
      ],
      "min": [
        0
      ],
      "type": "SCALAR"
    },
    {
      "bufferView": 2,
      "byteOffset": 3744,
      "componentType": 5126,
      "count": 236,
      "max": [
        0.036350000649690628,
        -0.015610000118613243,
        0.12531000375747681
      ],
      "min": [
        -0.036350000649690628,
        -0.07904999703168869,
        -9.9999997473787516e-06
      ],
      "type": "VEC3"
    },
    {
      "bufferView": 2,
      "byteOffset": 6576,
      "componentType": 5126,
      "count": 236,
      "max": [
        0.96490025520324707,
        0.74442040920257568,
        0.75799494981765747
      ],
      "min": [
        -0.96490025520324707,
        -0.84143441915512085,
        -1
      ],
      "type": "VEC3"
    },
    {
      "bufferView": 3,
      "byteOffset": 2496,
      "componentType": 5126,
      "count": 236,
      "max": [
        0.76122778654098511,
        0.99159842729568481,
        0.79413986206054688,
        1
      ],
      "min": [
        -0.84071940183639526,
        -0.77400362491607666,
        -0.90483176708221436,
        1
      ],
      "type": "VEC4"
    },
    {
      "bufferView": 1,
      "byteOffset": 1248,
      "componentType": 5126,
      "count": 236,
      "max": [
        0.9865800142288208,
        0.97380000352859497
      ],
      "min": [
        0.0032999999821186066,
        0.0032999999821186066
      ],
      "type": "VEC2"
    },
    {
      "bufferView": 0,
      "byteOffset": 672,
      "componentType": 5125,
      "count": 252,
      "max": [
        235
      ],
      "min": [
        0
      ],
      "type": "SCALAR"
    },
    {
      "bufferView": 2,
      "byteOffset": 9408,
      "componentType": 5126,
      "count": 172,
      "max": [
        0.032940000295639038,
        0.036850001662969589,
        0.11935000121593475
      ],
      "min": [
        -0.032940000295639038,
        -0.05778999999165535,
        0.019260000437498093
      ],
      "type": "VEC3"
    },
    {
      "bufferView": 2,
      "byteOffset": 11472,
      "componentType": 5126,
      "count": 172,
      "max": [
        0.99386060237884521,
        0.85175883769989014,
        0.75778144598007202
      ],
      "min": [
        -0.99386060237884521,
        -0.85294061899185181,
        -0.95549321174621582
      ],
      "type": "VEC3"
    },
    {
      "bufferView": 3,
      "byteOffset": 6272,
      "componentType": 5126,
      "count": 172,
      "max": [
        0.92311596870422363,
        0.99836128950119019,
        0.77383512258529663,
        1
      ],
      "min": [
        -0.9038507342338562,
        -0.91652524471282959,
        -0.95159953832626343,
        1
      ],
      "type": "VEC4"
    },
    {
      "bufferView": 1,
      "byteOffset": 3136,
      "componentType": 5126,
      "count": 172,
      "max": [
        0.93906998634338379,
        0.9966999888420105
      ],
      "min": [
        0.0032999999821186066,
        0.0032999999821186066
      ],
      "type": "VEC2"
    },
    {
      "bufferView": 0,
      "byteOffset": 1680,
      "componentType": 5125,
      "count": 204,
      "max": [
        171
      ],
      "min": [
        0
      ],
      "type": "SCALAR"
    }
  ],
  "asset": {
    "extras": {
      "author": "Łukasz Paraszka (https://sketchfab.com/LukaszParaszka)",
      "license": "CC-BY-4.0 (http://creativecommons.org/licenses/by/4.0/)",
      "source": "https://sketchfab.com/3d-models/bird-bullfinch-1cbecfb93d454acda8f4df9a6aba26d4",
      "title": "Bird - Bullfinch"
    },
    "generator": "Sketchfab-7.7.0",
    "version": "2.0"
  },
  "bufferViews": [
    {
      "buffer": 0,
      "byteLength": 2496,
      "byteOffset": 0,
      "name": "floatBufferViews",
      "target": 34963
    },
    {
      "buffer": 0,
      "byteLength": 4512,
      "byteOffset": 2496,
      "byteStride": 8,
      "name": "floatBufferViews",
      "target": 34962
    },
    {
      "buffer": 0,
      "byteLength": 13536,
      "byteOffset": 7008,
      "byteStride": 12,
      "name": "floatBufferViews",
      "target": 34962
    },
    {
      "buffer": 0,
      "byteLength": 9024,
      "byteOffset": 20544,
      "byteStride": 16,
      "name": "floatBufferViews",
      "target": 34962
    }
  ],
  "buffers": [
    {
      "byteLength": 29568,
      "uri": "scene.bin"
    }
  ],
  "materials": [
    {
      "doubleSided": true,
      "name": "material",
      "pbrMetallicRoughness": {
        "baseColorFactor": [
          0.049706565984127232,
          0.049706565984127232,
          0.049706565984127232,
          1
        ],
        "metallicFactor": 0,
        "roughnessFactor": 0.59999999999999998
      }
    },
    {
      "doubleSided": true,
      "name": "material_1",
      "pbrMetallicRoughness": {
        "baseColorFactor": [
          0.033104766570885048,
          0.033104766570885048,
          0.033104766570885048,
          1
        ],
        "metallicFactor": 0,
        "roughnessFactor": 0.59999999999999998
      }
    },
    {
      "doubleSided": true,
      "name": "material_2",
      "pbrMetallicRoughness": {
        "baseColorFactor": [
          0.79910273801440879,
          0.21586050011389935,
          0.038204371595346502,
          1
        ],
        "metallicFactor": 0,
        "roughnessFactor": 0.59999999999999998
      }
    },
    {
      "doubleSided": true,
      "name": "material_3",
      "pbrMetallicRoughness": {
        "baseColorFactor": [
          0.36625259559883949,
          0.36625259559883949,
          0.36625259559883949,
          1
        ],
        "metallicFactor": 0,
        "roughnessFactor": 0.59999999999999998
      }
    }
  ],
  "meshes": [
    {
      "name": "Plane_0",
      "primitives": [
        {
          "attributes": {
            "NORMAL": 1,
            "POSITION": 0,
            "TANGENT": 2,
            "TEXCOORD_0": 3
          },
          "indices": 4,
          "material": 0,
          "mode": 4
        }
      ]
    },
    {
      "name": "Plane_1",
      "primitives": [
        {
          "attributes": {
            "NORMAL": 6,
            "POSITION": 5,
            "TANGENT": 7,
            "TEXCOORD_0": 8
          },
          "indices": 9,
          "material": 1,
          "mode": 4
        }
      ]
    },
    {
      "name": "Plane_2",
      "primitives": [
        {
          "attributes": {
            "NORMAL": 11,
            "POSITION": 10,
            "TANGENT": 12,
            "TEXCOORD_0": 13
          },
          "indices": 14,
          "material": 2,
          "mode": 4
        }
      ]
    },
    {
      "name": "Plane_3",
      "primitives": [
        {
          "attributes": {
            "NORMAL": 16,
            "POSITION": 15,
            "TANGENT": 17,
            "TEXCOORD_0": 18
          },
          "indices": 19,
          "material": 3,
          "mode": 4
        }
      ]
    }
  ],
  "nodes": [
    {
      "children": [
        1
      ],
      "name": "RootNode (gltf orientation matrix)",
      "rotation": [
        -0.70710678118654746,
        -0,
        -0,
        0.70710678118654757
      ]
    },
    {
      "children": [
        2
      ],
      "name": "RootNode (model correction matrix)"
    },
    {
      "children": [
        3
      ],
      "name": "Root"
    },
    {
      "children": [
        4,
        5,
        6,
        7
      ],
      "name": "Plane"
    },
    {
      "mesh": 0,
      "name": "Plane_0"
    },
    {
      "mesh": 1,
      "name": "Plane_1"
    },
    {
      "mesh": 2,
      "name": "Plane_2"
    },
    {
      "mesh": 3,
      "name": "Plane_3"
    }
  ],
  "scene": 0,
  "scenes": [
    {
      "name": "OSG_Scene",
      "nodes": [
        0
      ]
    }
  ]
}

